{"title":"Velaiyilla Pattathari (2014) TC Rip x264 AAC - Shammu","uid":10595691,"size":735271293,"categoryP":"video","categoryS":"movies","magnet":"?xt=urn:btih:46cb3ef63c4b309fd0fdd941bd5921e28fc2398f&amp;dn=Velaiyilla+Pattathari+%282014%29+TC+Rip+x264+AAC+-+Shammu&amp;tr=udp%3A%2F%2Ftracker.openbittorrent.com%3A80&amp;tr=udp%3A%2F%2Fopen.demonii.com%3A1337&amp;tr=udp%3A%2F%2Ftracker.coppersurfer.tk%3A6969&amp;tr=udp%3A%2F%2Fexodus.desync.com%3A6969","seeders":4,"leechers":0,"uploader":"TeamXDN","files":-1,"time":1405815939,"description":"Velaiyilla Pattathari (2014) TC Rip x264 AAC - Shammu\n\normat : MPEG-4\nFormat profile : Base Media\nCodec ID : isom\nFile size : 701 MiB\nDuration : 2h 10mn\nOverall bit rate mode : Variable\nOverall bit rate : 753 Kbps\nEncoded date : UTC 2014-07-20 09:47:35\nTagged date : UTC 2014-07-20 09:47:35\n\nVideo\nID : 1\nFormat : AVC\nFormat/Info : Advanced Video Codec\nFormat profile : &lt;a class=&quot;__cf_email__&quot; href=&quot;/cdn-cgi/l/email-protection&quot; data-cfemail=&quot;7f371618173f334d514e&quot;&gt;[email&amp;#160;protected]&lt;/a&gt;&lt;script cf-hash='f9e31' type=&quot;text/javascript&quot;&gt;\n/* &lt;![CDATA[ */!function(){try{var t=&quot;currentScript&quot;in document?document.currentScript:function(){for(var t=document.getElementsByTagName(&quot;script&quot;),e=t.length;e--;)if(t[e].getAttribute(&quot;cf-hash&quot;))return t[e]}();if(t&amp;&amp;t.previousSibling){var e,r,n,i,c=t.previousSibling,a=c.getAttribute(&quot;data-cfemail&quot;);if(a){for(e=&quot;&quot;,r=parseInt(a.substr(0,2),16),n=2;a.length-n;n+=2)i=parseInt(a.substr(n,2),16)^r,e+=String.fromCharCode(i);e=document.createTextNode(e),c.parentNode.replaceChild(e,c)}}}catch(u){}}();/* ]]&gt; */&lt;/script&gt;\nFormat settings, CABAC : Yes\nFormat settings, ReFrames : 4 frames\nCodec ID : avc1\nCodec ID/Info : Advanced Video Coding\nDuration : 2h 10mn\nBit rate : 661 Kbps\nMaximum bit rate : 2 493 Kbps\nWidth : 608 pixels\nHeight : 256 pixels\nDisplay aspect ratio : 2.40:1\nFrame rate mode : Constant\nFrame rate : 29.970 fps\nColor space : YUV\nChroma subsampling : 4:2:0\nBit depth : 8 bits\nScan type : Progressive\nBits/(Pixel*Frame) : 0.142\nStream size : 615 MiB (88%)\nWriting library : x264 core 142 r2431 ac76440\nEncoded date : UTC 2014-07-20 04:49:28\nTagged date : UTC 2014-07-20 09:48:02\n\nAudio\nID : 2\nFormat : AAC\nFormat/Info : Advanced Audio Codec\nFormat profile : LC\nCodec ID : 40\nDuration : 2h 10mn\nBit rate mode : Variable\nBit rate : 88.0 Kbps\nMaximum bit rate : 98.0 Kbps\nChannel(s) : 2 channels\nChannel positions : Front: L R\nSampling rate : 48.0 KHz\nCompression mode : Lossy\nStream size : 81.9 MiB (12%)\nEncoded date : UTC 2014-07-20 04:54:58\nTagged date : UTC 2014-07-20 09:48:02","torrent":{"xt":"urn:btih:46cb3ef63c4b309fd0fdd941bd5921e28fc2398f","amp;dn":"Velaiyilla+Pattathari+%282014%29+TC+Rip+x264+AAC+-+Shammu","amp;tr":["udp%3A%2F%2Ftracker.openbittorrent.com%3A80","udp%3A%2F%2Fopen.demonii.com%3A1337","udp%3A%2F%2Ftracker.coppersurfer.tk%3A6969","udp%3A%2F%2Fexodus.desync.com%3A6969"],"infoHash":"46cb3ef63c4b309fd0fdd941bd5921e28fc2398f","infoHashBuffer":{"type":"Buffer","data":[70,203,62,246,60,75,48,159,208,253,217,65,189,89,33,226,143,194,57,143]},"announce":[],"urlList":[]}}